<svg xmlns="http://www.w3.org/2000/svg" width="180px" viewBox="0 0 355.45 81.88" fill="#103558">
  <path transform="translate(-244.52 -256.09)"
    d="M320.85,276.45a41,41,0,1,0,5.45,23.36c.06-.92.1-1.84.1-2.78,0-1.11,0-2.22-.14-3.31A40.68,40.68,0,0,0,320.85,276.45Zm-.52,24.82a35,35,0,1,1-.07-9,1.29,1.29,0,0,1-1.28,1.46H304a1.29,1.29,0,0,1-1.25-1,17.67,17.67,0,1,0,.12,8.1,1.28,1.28,0,0,1,1.26-1h14.95A1.29,1.29,0,0,1,320.33,301.27Zm76.13-15.57A13.25,13.25,0,1,0,409.61,299,12.91,12.91,0,0,0,396.46,285.7Zm0,21.09a7.85,7.85,0,1,1,7.47-7.84A7.49,7.49,0,0,1,396.46,306.79Zm-20.37-3.54a.32.32,0,0,0-.44.07,8.32,8.32,0,0,1-6.71,3.47,7.84,7.84,0,0,1-.32-15.68,8.07,8.07,0,0,1,6.38,3.33.33.33,0,0,0,.47.06l3.72-3.09a.33.33,0,0,0,.06-.45,13.39,13.39,0,0,0-10.63-5.26A13,13,0,0,0,355.37,299c0,7.55,5.83,13.25,13.57,13.25a13.51,13.51,0,0,0,11.14-5.7.33.33,0,0,0-.09-.44Zm214.61-7.16c-2.52-.64-4.18-1.17-4.18-2.57,0-1.91,2.15-2.78,4.15-2.78a8.31,8.31,0,0,1,4.86,1.69.33.33,0,0,0,.46-.07l2.61-3.59a.33.33,0,0,0-.06-.46,13.13,13.13,0,0,0-8.19-2.61c-4.58,0-9.5,2.53-9.5,8.08,0,3.09,2,5.41,5.92,6.7.88.29,1.78.52,2.65.74,3,.78,4.87,1.34,4.87,3.16s-2,2.78-4,2.78a11.69,11.69,0,0,1-6.86-2.47.32.32,0,0,0-.46.07l-2.62,3.68a.33.33,0,0,0,.07.45,15.82,15.82,0,0,0,10,3.31c4.63,0,9.56-2.78,9.56-7.93C600,298.47,593.47,296.81,590.7,296.09ZM446.45,285.7a12.52,12.52,0,0,0-9.18,3.73.33.33,0,0,1-.46,0A11.42,11.42,0,0,0,421.54,288a.14.14,0,0,1-.22-.12v-1.31a.33.33,0,0,0-.33-.33h-4.87a.32.32,0,0,0-.32.33v24.8a.32.32,0,0,0,.32.32h5a.32.32,0,0,0,.32-.32V294.56a.33.33,0,0,1,.08-.22,9.08,9.08,0,0,1,6.55-3.23,6,6,0,0,1,4.54,2c.95,1.11,1.35,2.53,1.35,4.74v13.46a.32.32,0,0,0,.32.32h5a.32.32,0,0,0,.32-.32V298.68a21.47,21.47,0,0,0-.35-4.1.31.31,0,0,1,.08-.29,9.68,9.68,0,0,1,7.06-3.18,5.7,5.7,0,0,1,4.38,2c.95,1.11,1.35,2.53,1.35,4.74v13.46a.32.32,0,0,0,.33.32h5a.32.32,0,0,0,.33-.32V298.68c0-4.06-.7-6.66-2.34-8.69A11.49,11.49,0,0,0,446.45,285.7Zm96.95,20.86a13.55,13.55,0,0,1-2.35.23,4.25,4.25,0,0,1-3.17-1.2,4.51,4.51,0,0,1-.66-2.95V291.7a.32.32,0,0,1,.32-.33h4.53a.32.32,0,0,0,.33-.32v-4.5a.33.33,0,0,0-.33-.33h-4.53a.32.32,0,0,1-.32-.32v-6.2a.33.33,0,0,0-.33-.33h-5a.33.33,0,0,0-.33.33v6.2a.32.32,0,0,1-.33.32h-4.34a.32.32,0,0,0-.32.33v4.5a.32.32,0,0,0,.32.32h4.34a.33.33,0,0,1,.33.33v10.68c0,3,.69,5.25,2.09,6.81a9.35,9.35,0,0,0,7.26,3,14.78,14.78,0,0,0,3.72-.46.31.31,0,0,0,.22-.38l-1.06-4.56A.31.31,0,0,0,543.4,306.56Zm30.4-20.34h-4.86a.33.33,0,0,0-.33.33v1.34a.11.11,0,0,1-.18.09,12,12,0,0,0-7.24-2.28,12.23,12.23,0,0,0-6.23,1.62,13.58,13.58,0,0,0-.05,23.2,13.06,13.06,0,0,0,6.39,1.68,11.91,11.91,0,0,0,7.11-2.26.12.12,0,0,1,.2.09v1.32a.32.32,0,0,0,.33.32h4.86a.32.32,0,0,0,.33-.32v-24.8A.33.33,0,0,0,573.8,286.22Zm-5.35,17.14a.31.31,0,0,1-.07.21,8.21,8.21,0,0,1-6.39,3.22,7.79,7.79,0,0,1-7.9-7.84,7.57,7.57,0,0,1,7.63-7.84,8.62,8.62,0,0,1,6.66,3.22.31.31,0,0,1,.07.21Zm-83.65-16a12.26,12.26,0,0,0-6.24-1.62,11.9,11.9,0,0,0-7.2,2.27.13.13,0,0,1-.21-.11v-1.31a.33.33,0,0,0-.33-.33H466a.32.32,0,0,0-.32.33V324a.32.32,0,0,0,.32.33h5a.32.32,0,0,0,.32-.33V310.13a.13.13,0,0,1,.21-.1,11.49,11.49,0,0,0,6.95,2.17,13.06,13.06,0,0,0,6.39-1.68,13.58,13.58,0,0,0-.05-23.2Zm-7,19.47a8.21,8.21,0,0,1-6.39-3.22.32.32,0,0,1-.08-.21v-8.82a.32.32,0,0,1,.08-.21,8.62,8.62,0,0,1,6.66-3.22,7.56,7.56,0,0,1,7.62,7.84A7.78,7.78,0,0,1,477.77,306.79Zm42.77-20.57h-5a.33.33,0,0,0-.33.33v16.79a.31.31,0,0,1-.07.21,9,9,0,0,1-6.55,3.24,6,6,0,0,1-4.55-2.05c-.94-1.11-1.34-2.52-1.34-4.74V286.55a.33.33,0,0,0-.33-.33h-5a.33.33,0,0,0-.33.33v12.66c0,4.06.7,6.66,2.34,8.7a11.49,11.49,0,0,0,9.07,4.29,11.72,11.72,0,0,0,6.75-2.26.12.12,0,0,1,.19.1v1.31a.32.32,0,0,0,.33.32h4.86a.32.32,0,0,0,.33-.32v-24.8A.33.33,0,0,0,520.54,286.22Z"
    class="cls-1"></path>
</svg>